<?xml version="1.0" encoding="UTF-8"?>
<svg version="1.1" viewBox="0 0 2048 1534" width="259" height="194" xmlns="http://www.w3.org/2000/svg">
<path transform="translate(0)" d="m0 0h2048v1534h-2048z" fill="#FDFDFD"/>
<path transform="translate(440,518)" d="m0 0h20l24 2 24 5 26 8 25 11 23 13 17 12 10 8 10 9 18 18 10 13 12 18 10 17 10 22 7 19 6 24 4 26 1 14v19l-3 29-6 26-7 20-7 17-8 16-6 11-10 15-10 13-15 16-7 7-11 9-10 8-14 10-16 9-16 8-24 9-25 7-30 5-9 1h-27l-26-3-27-6-27-9-16-7-24-14-17-12-10-8-10-9-16-16-11-14-12-17-13-23-10-23-8-26-5-23-2-18v-33l2-21 5-24 7-23 9-22 12-23 10-15 9-12 12-14 16-16 11-9 15-11 18-11 19-10 23-9 20-6 25-5 7-1z" fill="#6333CF"/>
<path transform="translate(815,798)" d="m0 0h113l17 4 12 6 9 7 7 11 5 12 2 9v13l-4 14-5 10-9 9-7 4h-2l4 4 14 9 7 8 7 15 3 11v17l-5 15-5 10-9 10-10 7-15 6-11 2-20 1h-98z" fill="#030104"/>
<path transform="translate(1745,580)" d="m0 0h17l15 3 10 5 13 11 5 2v-16l1-1h20l12 1 1 1-1 156-3 16-4 9-6 9-5 6-11 8-12 6-16 4-9 1h-13l-19-2-15-5-14-8-10-10-9-14v-5l10-4 14-4h6l5 4 4 6 8 7 10 5 13 2 16-2 10-4 8-7 5-8 3-12 2-25h-3l-12 10-16 8-14 3h-14l-16-3-10-4-13-9-9-10-7-11-5-12-3-12-1-10v-12l2-16 6-18 7-12 9-10 9-7 14-7z" fill="#030104"/>
<path transform="translate(1166,579)" d="m0 0h12l14 3 9 5 10 8 6 5 5 2 1-17 2-1h32v154l-1 1h-17l-16-1 1-18-6 3-10 9-16 8-11 3h-22l-11-3-16-8-10-8-9-11-8-17-4-13-2-15v-11l3-19 5-15 6-12 9-11 10-9 10-6 11-4z" fill="#030104"/>
<path transform="translate(1074,852)" d="m0 0 15 1 14 5 11 7 14 10v-18h33l1 1v153l-4 1h-28l-1-1-1-19-6 4-13 11-14 7-6 2-7 1h-14l-13-3-14-7-9-7-8-7-9-13-5-10-5-21v-28l5-20 5-12 6-10 10-11 10-7 11-5 12-3z" fill="#030104"/>
<path transform="translate(875,520)" d="m0 0h23l13 2 16 5 13 7 11 9 8 10 8 16 2 5v7l-29 8-5-1-4-9-7-11-7-7-10-5-16-3h-9l-13 2-14 7-7 8-2 6v7l3 8 8 8 13 5 51 12 17 6 16 8 10 9 6 8 4 10 2 12v12l-2 13-4 11-7 11-7 7-10 7-12 6-16 5-12 2h-29l-20-4-15-6-14-9-7-6-8-10-7-12-5-15 1-5 13-4 15-4 6-1 3 7 4 9 6 10 9 8 12 6 7 2 8 1h10l15-2 13-5 8-6 6-10 1-3v-12l-6-9-9-6-17-6-46-11-20-7-12-7-7-6-7-10-5-13-1-5v-18l5-16 7-12 8-8 14-9 16-6z" fill="#030104"/>
<path transform="translate(1360,790)" d="m0 0h32l1 1 1 119 1 5 9-8 7-8 21-21 8-7 11-11 5-2 28-1h14l-6 7-17 16-29 29-8 7-3 3h-2l6 9 12 17 12 16 13 18 13 17 9 12 1 3-8 1h-29l-5-3-14-18-16-21-12-17-5-5-5 1-9 9-2 7-1 44-1 3h-12l-20-1-1-92v-101z" fill="#030105"/>
<path transform="translate(501,596)" d="m0 0h18l1 11v46l-2 1-27 1-17 4-19 9-14 10-11 11-9 14-7 15-4 15-2 14-1 17-1 1h-54l-2-2v-13l3-27 4-17 8-21 9-16 9-12 12-14 13-12 17-12 18-10 17-6 16-4 13-2z" fill="#FDFDFD"/>
<path transform="translate(520,765)" d="m0 0h24l5 2v17l-3 23-4 17-6 16-11 21-8 11-11 13-11 11-16 12-17 10-20 8-16 4-23 3-9 1h-13l-2-4v-51l1-1 24-2 17-4 15-6 14-8 11-9 8-8 10-15 8-20 2-9 2-24 1-7z" fill="#FDFDFD"/>
<path transform="translate(1596,580)" d="m0 0h19l14 3 10 6 9 9 6 10 5 13 2 13v100l-1 4h-34l-1-104-3-9-9-10-7-4-5-1h-13l-11 4-10 9-7 12-2 7-1 9-1 88h-14l-20-1v-154h34l1 1v19l13-13 11-7z" fill="#030105"/>
<path transform="translate(1262,853)" d="m0 0h25l10 3 11 6 10 10 8 15 3 11 1 6v65l-1 42h-34l-1-104-2-8-4-6-8-7-12-4h-10l-12 5-9 8-7 11-3 10-1 64-1 31-4 1h-16l-13-1-1-10v-143l19-1h14l1 2 1 15 5-2 12-11 12-6z" fill="#040207"/>
<path transform="translate(1021,544)" d="m0 0h25l5 1 1 38 31 1v28l-1 1h-23l-7-1v90l4 6 8 3 19 1 1 1v16l-3 10-7 3h-23l-14-4-9-6-7-8-3-8-1-6-1-97-23-1-1-26 4-2 20-1 1-38z" fill="#020103"/>
<path transform="translate(1076,882)" d="m0 0h15l13 4 8 6 7 8 7 16 2 12v13l-2 12-5 12-6 9-8 7-12 5-7 1h-10l-10-2-8-4-9-8-7-12-4-13-1-7v-14l4-16 4-8 8-10 9-7z" fill="#FDFDFD"/>
<path transform="translate(1168,610)" d="m0 0h21l11 4 9 7 7 10 5 13 2 14-1 17-4 13-6 10-9 9-7 4-11 3h-14l-13-4-10-8-9-14-4-13-1-5v-17l3-13 7-14 6-7 11-7z" fill="#FDFDFD"/>
<path transform="translate(1394,519)" d="m0 0h34l-1 219h-34z" fill="#020102"/>
<path transform="translate(1750,609)" d="m0 0h23l11 4 9 7 7 10 4 11 2 16-2 18-5 12-9 11-9 6-9 4-5 1h-11l-10-3-11-6-7-7-6-10-4-14-1-14 3-16 6-12 9-10 9-6z" fill="#FDFDFD"/>
<path transform="translate(1365,582)" d="m0 0h6l1 2v31l-1 1-25 3-8 4-8 9-8 14-2 92-1 1-33-1v-153l1-1h33l1 23 5-3 9-10 10-8 12-3z" fill="#030104"/>
<path transform="translate(851,915)" d="m0 0h72l9 2 9 6 6 7 5 15-1 13-4 10-6 7-7 4-6 2-7 1h-68l-2-2-1-6v-54z" fill="#FDFDFD"/>
<path transform="translate(852,827)" d="m0 0h53l17 1 9 3 7 6 7 14v14l-6 12-7 7-7 3-8 1-60 1-5-1-2-7v-21l1-32z" fill="#FDFDFD"/>
<path transform="translate(1458,584)" d="m0 0h35l-1 155h-13l-21-1z" fill="#020102"/>
<path transform="translate(1469,518)" d="m0 0h12l8 4 5 6 4 10-1 8-3 6-5 6-8 4-8 1-10-3-6-5-4-9v-13l6-8 6-5z" fill="#030105"/>
</svg>
